<svg width="26" height="26" viewBox="0 0 26 26" fill="none" xmlns="http://www.w3.org/2000/svg">
<path d="M21.4255 8.07801V1.25532C21.4255 1.11431 21.5398 1 21.6809 1V1C21.8219 1 21.9362 1.11431 21.9362 1.25532V8.07801C21.9362 8.21902 21.8219 8.33333 21.6809 8.33333V8.33333C21.5398 8.33333 21.4255 8.21902 21.4255 8.07801ZM4.06383 1V1C4.34585 1 4.57447 1.22862 4.57447 1.51064V7.8227C4.57447 8.10471 4.34585 8.33333 4.06383 8.33333V8.33333C3.78181 8.33333 3.55319 8.10471 3.55319 7.82269V1.51064C3.55319 1.22862 3.78181 1 4.06383 1ZM4 5.66667H22C23.6569 5.66667 25 7.00982 25 8.66667V22C25 23.6569 23.6569 25 22 25H4C2.34315 25 1 23.6569 1 22V8.66667C1 7.00981 2.34315 5.66667 4 5.66667Z" stroke="#090067" stroke-width="2"/>
<path d="M21.4255 8.07801V1.25532C21.4255 1.11431 21.5398 1 21.6809 1V1C21.8219 1 21.9362 1.11431 21.9362 1.25532V8.07801C21.9362 8.21902 21.8219 8.33333 21.6809 8.33333V8.33333C21.5398 8.33333 21.4255 8.21902 21.4255 8.07801ZM4.06383 1V1C4.34585 1 4.57447 1.22862 4.57447 1.51064V7.8227C4.57447 8.10471 4.34585 8.33333 4.06383 8.33333V8.33333C3.78181 8.33333 3.55319 8.10471 3.55319 7.82269V1.51064C3.55319 1.22862 3.78181 1 4.06383 1ZM4 5.66667H22C23.6569 5.66667 25 7.00982 25 8.66667V22C25 23.6569 23.6569 25 22 25H4C2.34315 25 1 23.6569 1 22V8.66667C1 7.00981 2.34315 5.66667 4 5.66667Z" stroke="#090067" stroke-width="2"/>
<path d="M21.4255 8.07801V1.25532C21.4255 1.11431 21.5398 1 21.6809 1V1C21.8219 1 21.9362 1.11431 21.9362 1.25532V8.07801C21.9362 8.21902 21.8219 8.33333 21.6809 8.33333V8.33333C21.5398 8.33333 21.4255 8.21902 21.4255 8.07801ZM4.06383 1V1C4.34585 1 4.57447 1.22862 4.57447 1.51064V7.8227C4.57447 8.10471 4.34585 8.33333 4.06383 8.33333V8.33333C3.78181 8.33333 3.55319 8.10471 3.55319 7.82269V1.51064C3.55319 1.22862 3.78181 1 4.06383 1ZM4 5.66667H22C23.6569 5.66667 25 7.00982 25 8.66667V22C25 23.6569 23.6569 25 22 25H4C2.34315 25 1 23.6569 1 22V8.66667C1 7.00981 2.34315 5.66667 4 5.66667Z" stroke="#090067" stroke-width="2"/>
<path d="M20.4286 11.6666H19.2857V13H20.4286V11.6666Z" stroke="#090067" stroke-width="2"/>
<path d="M20.4286 11.6666H19.2857V13H20.4286V11.6666Z" stroke="#090067" stroke-width="2"/>
<path d="M20.4286 11.6666H19.2857V13H20.4286V11.6666Z" stroke="#090067" stroke-width="2"/>
<path d="M11.2857 17H10.1429V18.3333H11.2857V17Z" stroke="#090067" stroke-width="2"/>
<path d="M11.2857 17H10.1429V18.3333H11.2857V17Z" stroke="#090067" stroke-width="2"/>
<path d="M11.2857 17H10.1429V18.3333H11.2857V17Z" stroke="#090067" stroke-width="2"/>
<path d="M15.8572 17H14.7143V18.3333H15.8572V17Z" stroke="#090067" stroke-width="2"/>
<path d="M15.8572 17H14.7143V18.3333H15.8572V17Z" stroke="#090067" stroke-width="2"/>
<path d="M15.8572 17H14.7143V18.3333H15.8572V17Z" stroke="#090067" stroke-width="2"/>
<path d="M6.71428 17H5.57143V18.3333H6.71428V17Z" stroke="#090067" stroke-width="2"/>
<path d="M6.71428 17H5.57143V18.3333H6.71428V17Z" stroke="#090067" stroke-width="2"/>
<path d="M6.71428 17H5.57143V18.3333H6.71428V17Z" stroke="#090067" stroke-width="2"/>
<path d="M20.4286 17H19.2857V18.3333H20.4286V17Z" stroke="#090067" stroke-width="2"/>
<path d="M20.4286 17H19.2857V18.3333H20.4286V17Z" stroke="#090067" stroke-width="2"/>
<path d="M20.4286 17H19.2857V18.3333H20.4286V17Z" stroke="#090067" stroke-width="2"/>
<path d="M15.8572 11.6666H14.7143V13H15.8572V11.6666Z" stroke="#090067" stroke-width="2"/>
<path d="M15.8572 11.6666H14.7143V13H15.8572V11.6666Z" stroke="#090067" stroke-width="2"/>
<path d="M15.8572 11.6666H14.7143V13H15.8572V11.6666Z" stroke="#090067" stroke-width="2"/>
<path d="M11.2857 11.6666H10.1429V13H11.2857V11.6666Z" stroke="#090067" stroke-width="2"/>
<path d="M11.2857 11.6666H10.1429V13H11.2857V11.6666Z" stroke="#090067" stroke-width="2"/>
<path d="M11.2857 11.6666H10.1429V13H11.2857V11.6666Z" stroke="#090067" stroke-width="2"/>
<path d="M6.71428 11.6666H5.57143V13H6.71428V11.6666Z" stroke="#090067" stroke-width="2"/>
<path d="M6.71428 11.6666H5.57143V13H6.71428V11.6666Z" stroke="#090067" stroke-width="2"/>
<path d="M6.71428 11.6666H5.57143V13H6.71428V11.6666Z" stroke="#090067" stroke-width="2"/>
</svg>
