<svg width="35" height="23" viewBox="0 0 35 23" fill="none" xmlns="http://www.w3.org/2000/svg">
<path d="M19 20H6C3.23858 20 1 17.7614 1 15V6C1 3.23858 3.23858 1 6 1H19C21.7614 1 24 3.23858 24 6V15C24 17.7614 21.7614 20 19 20Z" stroke="#090067" stroke-width="2"/>
<path d="M19 20H6C3.23858 20 1 17.7614 1 15V6C1 3.23858 3.23858 1 6 1H19C21.7614 1 24 3.23858 24 6V15C24 17.7614 21.7614 20 19 20Z" stroke="#090067" stroke-width="2"/>
<path d="M19 20H6C3.23858 20 1 17.7614 1 15V6C1 3.23858 3.23858 1 6 1H19C21.7614 1 24 3.23858 24 6V15C24 17.7614 21.7614 20 19 20Z" stroke="#090067" stroke-width="2"/>
<path d="M29 22H16C13.2386 22 11 19.7614 11 17V10C11 7.23858 13.2386 5 16 5H29C31.7614 5 34 7.23858 34 10V17C34 19.7614 31.7614 22 29 22Z" fill="white"/>
<path d="M29 22H16C13.2386 22 11 19.7614 11 17V10C11 7.23858 13.2386 5 16 5H29C31.7614 5 34 7.23858 34 10V17C34 19.7614 31.7614 22 29 22Z" stroke="#090067" stroke-width="2"/>
<path d="M29 22H16C13.2386 22 11 19.7614 11 17V10C11 7.23858 13.2386 5 16 5H29C31.7614 5 34 7.23858 34 10V17C34 19.7614 31.7614 22 29 22Z" stroke="#090067" stroke-width="2"/>
<path d="M29 22H16C13.2386 22 11 19.7614 11 17V10C11 7.23858 13.2386 5 16 5H29C31.7614 5 34 7.23858 34 10V17C34 19.7614 31.7614 22 29 22Z" stroke="#090067" stroke-width="2"/>
<path d="M18.559 14.8797L23.9668 10.5073M18.559 14.8797L20.5618 16.6604M18.559 14.8797L18.3897 16.6507L20.5618 16.6604M23.9668 10.5073L25.5799 12.155M23.9668 10.5073L25.1934 9.46283C25.8429 9.68447 27.1527 10.3509 27.1962 11.2436L25.5799 12.155M25.5799 12.155L20.5618 16.6604" stroke="#090067"/>
</svg>
