<svg width="81" height="34" viewBox="0 0 81 34" fill="none" xmlns="http://www.w3.org/2000/svg">
<path d="M63.0416 13.2857C65.7741 15.295 64.1802 17.7763 63.0416 18.7658H57.1862V26.7576C56.8609 27.5187 57.5766 28.8126 63.0416 27.8993C64.1802 28.7365 65.7741 30.9134 63.0416 32.9227C62.4723 33.2484 60.9922 33.887 59.6259 33.8361C56.8609 33.9122 51.038 33.0141 49.8669 28.8126V18.7658H48.4031C44.6946 16.3911 46.8579 14.1229 48.4031 13.2857H49.8669V8.71889C52.4043 6.1615 55.8037 7.65331 57.1862 8.71889V13.2857H63.0416Z" fill="#FFCD00"/>
<path d="M16.4158 11.0555C17.9773 9.59412 20.1568 10.4466 21.0514 11.0555C21.7833 11.4547 23.4911 20.189 23.9791 22.0157C24.3694 23.4771 24.955 22.6246 25.1989 22.0157C25.4429 20.3413 26.4676 16.2159 28.6146 13.1105C30.7616 10.0051 32.9249 11.8166 33.7381 13.1105C34.714 15.6223 36.7146 20.9197 36.9098 22.0157C37.105 23.1118 37.8044 22.4724 38.1297 22.0157C38.6989 19.1234 40.2279 12.8822 41.7893 11.0555C43.3508 9.22879 45.5303 10.2944 46.4249 11.0555C47.8074 16.2311 50.5236 27.2675 50.3285 30.0075C50.1333 32.7476 48.458 32.9759 47.6447 32.7476C43.4971 33.8893 44.2291 25.8974 43.7411 24.7558C43.3508 23.8424 42.7652 24.3752 42.5212 24.7558C40.5694 32.9759 39.1056 33.2043 36.1779 32.7476C33.2502 32.2909 33.0062 24.9841 32.0303 23.6141C31.2496 22.518 30.4038 23.1574 30.0785 23.6141L26.9068 32.2909C24.955 33.7523 22.8405 32.8998 22.0273 32.2909C19.5062 25.8213 14.8544 12.5168 16.4158 11.0555Z" fill="#FFCD00"/>
<path d="M0.0283296 29.1484C0.613872 25.1296 4.17592 26.1038 5.88375 27.0933C14.2765 28.92 13.7723 26.3322 12.4711 24.8099C11.5765 24.7338 9.00664 24.3989 5.88375 23.6683C2.76086 22.9376 1.16688 20.4715 0.760251 19.3298C0.678925 18.6448 0.66266 16.6811 1.2482 14.3064C1.83374 11.9317 5.72109 10.5769 7.59158 10.1963C8.81146 9.96795 12.0807 9.83095 15.3988 11.1096C19.5464 12.708 19.0584 14.9914 17.5946 16.5898C16.1307 18.1881 13.691 16.1331 12.959 16.1331C12.2271 16.1331 10.5193 15.6764 8.56748 16.1331C6.61567 16.5898 6.85965 19.1015 10.5193 19.3298C13.447 19.5125 15.9681 20.4715 16.8627 20.9282C18.1639 21.7654 20.5223 24.3532 19.5464 28.0067C18.5705 31.6601 14.4229 33.3346 12.4711 33.7151C8.07953 33.8673 -0.557213 33.1671 0.0283296 29.1484Z" fill="#090067"/>
<path d="M61.4819 32.1845V5.46893C64.4096 2.18086 67.256 4.0989 68.3133 5.46893V14.3741C76.3157 10.9034 80.1054 15.8203 81 18.7125V32.1845C78.853 34.9245 75.8765 33.3262 74.6566 32.1845V20.5392C71.7289 17.2512 69.2078 19.1692 68.3133 20.5392V32.1845C65.3855 35.4726 62.5392 33.5545 61.4819 32.1845Z" fill="#FFCD00"/>
<ellipse cx="43.9157" cy="3.65341" rx="3.90361" ry="3.65341" fill="#FFCD00"/>
<ellipse cx="16.1024" cy="3.65341" rx="3.90361" ry="3.65341" fill="#FFCD00"/>
<path d="M63.1898 18.7237H61.4819V13.4719H63.1898C64.6536 14.842 64.4096 17.8103 63.1898 18.7237Z" fill="white"/>
<path d="M63.1898 33.109H61.4819V27.8572H63.1898C64.6536 29.2273 64.4096 32.1957 63.1898 33.109Z" fill="white"/>
</svg>
