<svg width="23" height="23" viewBox="0 0 23 23" fill="none" xmlns="http://www.w3.org/2000/svg">
<path fill-rule="evenodd" clip-rule="evenodd" d="M11.5 3.25834C10.1239 3.25834 9.00833 4.3739 9.00833 5.75001C9.00833 7.12612 10.1239 8.24167 11.5 8.24167C12.8761 8.24167 13.9917 7.12612 13.9917 5.75001C13.9917 4.3739 12.8761 3.25834 11.5 3.25834ZM7.09167 5.75001C7.09167 3.31535 9.06534 1.34167 11.5 1.34167C13.9347 1.34167 15.9083 3.31535 15.9083 5.75001C15.9083 8.18466 13.9347 10.1583 11.5 10.1583C9.06534 10.1583 7.09167 8.18466 7.09167 5.75001ZM3.99607 14.2681C5.74122 12.9139 8.27076 12.148 11.5 12.148C14.7292 12.148 17.2588 12.9139 19.0039 14.2681C20.7703 15.6387 21.6583 17.5584 21.6583 19.6577C21.6583 20.6652 20.9018 21.6583 19.762 21.6583H3.23804C2.09822 21.6583 1.34167 20.6652 1.34167 19.6577C1.34167 17.5584 2.22967 15.6387 3.99607 14.2681ZM5.17108 15.7823C3.88176 16.7828 3.25833 18.1389 3.25833 19.6577C3.25833 19.6984 3.26924 19.726 3.27851 19.7417H19.7215C19.7308 19.726 19.7417 19.6984 19.7417 19.6577C19.7417 18.1389 19.1182 16.7828 17.8289 15.7823C16.5184 14.7654 14.4479 14.0647 11.5 14.0647C8.5521 14.0647 6.48164 14.7654 5.17108 15.7823Z" fill="#090067"/>
</svg>
