<svg width="20" height="24" viewBox="0 0 20 24" fill="none" xmlns="http://www.w3.org/2000/svg">
<path d="M19 11.0001C19 15.9707 14.9706 20.0001 10 20.0001C5.02944 20.0001 1 15.9707 1 11.0001C1 6.02956 5.02944 2.00012 10 2.00012C14.9706 2.00012 19 6.02956 19 11.0001Z" stroke="#090067" stroke-width="2"/>
<path d="M9 6.00012V12.0001H15" stroke="#090067"/>
<path d="M9 6.00012V12.0001H15" stroke="#090067"/>
<path d="M9 6.00012V12.0001H15" stroke="#090067"/>
<path d="M14.8462 1.87701L16.3628 0.461493C16.6476 0.195662 17.0834 0.176066 17.3909 0.415257C17.73 0.678979 17.7974 1.16471 17.5431 1.51088L16.3148 3.18274C15.9858 3.6305 15.3522 3.71853 14.9137 3.37742C14.4343 3.00458 14.4022 2.29137 14.8462 1.87701Z" fill="#090067"/>
<path d="M4.01067 3.47203L2.93678 1.69704C2.7351 1.3637 2.80541 0.933238 3.10266 0.681382C3.43039 0.403698 3.91962 0.437398 4.20619 0.757397L5.59016 2.30286C5.96082 2.71677 5.91686 3.35495 5.49295 3.71412C5.02962 4.1067 4.32502 3.99162 4.01067 3.47203Z" fill="#090067"/>
<path d="M3.51115 21.0959L3.13336 20.7505C2.52451 20.1938 2.52451 19.2347 3.13336 18.6781C3.57684 18.2726 4.2292 18.1943 4.75603 18.4833L5.20483 18.7295C6.0854 19.2126 6.23011 20.4182 5.48885 21.0959C4.92898 21.6078 4.07102 21.6078 3.51115 21.0959Z" fill="#090067"/>
<path d="M16.4336 21.3768L15.9744 21.6028C15.2342 21.9672 14.341 21.6179 14.0442 20.8481C13.8281 20.2874 13.9927 19.6514 14.4538 19.2659L14.8465 18.9376C15.6171 18.2934 16.7926 18.5977 17.1538 19.5349C17.4267 20.2427 17.1142 21.0417 16.4336 21.3768Z" fill="#090067"/>
</svg>
